<svg width="80" height="81" viewBox="0 0 80 81" fill="none" xmlns="http://www.w3.org/2000/svg">
<g clip-path="url(#clip0)">
<path d="M11.6734 27.3552C8.91263 27.3552 6.67456 29.5932 6.67456 32.354V55.6818C6.67456 58.4426 8.91263 60.6806 11.6734 60.6806C14.4341 60.6806 16.6722 58.4426 16.6722 55.6818V32.354C16.6722 29.5932 14.4341 27.3552 11.6734 27.3552Z" fill="#4CAF50"/>
<path d="M68.3267 27.3552C65.566 27.3552 63.3279 29.5932 63.3279 32.354V55.6818C63.3279 58.4426 65.566 60.6806 68.3267 60.6806C71.0875 60.6806 73.3255 58.4426 73.3255 55.6818V32.354C73.3255 29.5932 71.0876 27.3552 68.3267 27.3552Z" fill="#4CAF50"/>
<path d="M58.3289 27.3552H21.671C20.7507 27.3552 20.0046 28.1012 20.0046 29.0215V55.6818C20.0039 59.6415 22.7901 63.0546 26.6698 63.8466V75.6771C26.6698 78.4379 28.9079 80.6759 31.6686 80.6759C34.4294 80.6759 36.6675 78.4379 36.6675 75.6771V64.0131H43.3326V75.6771C43.3326 78.4379 45.5707 80.6759 48.3314 80.6759C51.0922 80.6759 53.3303 78.4379 53.3303 75.6771V63.8466C57.21 63.0546 59.9962 59.6415 59.9954 55.6818V29.0215C59.9953 28.1012 59.2492 27.3552 58.3289 27.3552Z" fill="#4CAF50"/>
<path d="M52.1138 7.59981L56.1762 3.54076C56.838 2.90138 56.8563 1.84663 56.2171 1.18459C55.5777 0.522718 54.5229 0.504441 53.8609 1.14367C53.847 1.1571 53.8334 1.17069 53.82 1.18459L49.0878 5.91692C43.292 3.39923 36.7112 3.39923 30.9154 5.91692L26.1832 1.18131C25.5213 0.541932 24.4664 0.560365 23.827 1.22224C23.2034 1.86803 23.2034 2.89169 23.827 3.53732L27.8861 7.59965C22.9377 10.8739 19.974 16.4227 20.0046 22.3562C20.0046 23.2764 20.7507 24.0225 21.671 24.0225H58.3291C59.2493 24.0225 59.9954 23.2764 59.9954 22.3562C60.0259 16.4229 57.0622 10.874 52.1138 7.59981Z" fill="#4CAF50"/>
<path d="M31.6688 17.3575C32.5891 17.3575 33.3351 16.6115 33.3351 15.6912C33.3351 14.7709 32.5891 14.0248 31.6688 14.0248C30.7485 14.0248 30.0024 14.7709 30.0024 15.6912C30.0024 16.6115 30.7485 17.3575 31.6688 17.3575Z" fill="#FAFAFA"/>
<path d="M48.3314 17.3575C49.2517 17.3575 49.9977 16.6115 49.9977 15.6912C49.9977 14.7709 49.2517 14.0248 48.3314 14.0248C47.4111 14.0248 46.665 14.7709 46.665 15.6912C46.665 16.6115 47.4111 17.3575 48.3314 17.3575Z" fill="#FAFAFA"/>
</g>
<defs>
<clipPath id="clip0">
<rect width="80" height="80" fill="white" transform="translate(0 0.675964)"/>
</clipPath>
</defs>
</svg>
