<svg width="80" height="81" viewBox="0 0 80 81" fill="none" xmlns="http://www.w3.org/2000/svg">
<g clip-path="url(#clip0)">
<path d="M51.9128 13.3521C54.4609 10.2722 56.2517 6.08924 56.1619 1.82862C56.1467 1.11315 55.4941 0.581899 54.7866 0.689868C51.048 1.26112 46.8688 3.60252 44.2819 6.63112C41.8977 9.38784 39.7817 13.6719 39.9408 17.9171C39.9647 18.5567 40.5052 19.0666 41.145 19.0485C45.2714 18.9317 49.3453 16.4608 51.9128 13.3521Z" fill="#D6D6D8"/>
<path d="M43.1603 17.9171C42.9136 11.3357 47.8791 3.64847 55.9388 1.17019C55.6858 0.822373 55.2485 0.619405 54.7866 0.689873C51.048 1.26112 46.8688 3.60253 44.2819 6.63112C41.8977 9.38784 39.7816 13.6721 39.9408 17.9171C39.9647 18.5567 40.5052 19.0666 41.145 19.0485C41.9452 19.0258 42.7432 18.9138 43.5286 18.7266C43.3122 18.5216 43.1722 18.2355 43.1603 17.9171Z" fill="#C2C2C4"/>
<path d="M71.8287 58.911C69.2382 57.6068 62.0891 53.106 62.0007 43.1245C61.9251 34.9537 67.347 30.2026 69.6534 28.5437C70.2009 28.1498 70.3212 27.379 69.9049 26.8482C67.9885 24.4053 65.7477 22.8382 63.5952 21.8224C63.5965 21.8223 63.598 21.822 63.5993 21.8218C63.3205 21.6901 62.8432 21.481 62.4612 21.3306C51.6299 17.067 44.804 23.6021 40.6691 23.6021C37.5034 23.6021 32.6182 20.0251 27.4423 20.1228C20.6409 20.2215 14.3762 24.0793 10.8688 30.1668C5.48789 39.5065 7.26242 52.274 11.4548 62.2243C11.4548 62.2245 11.4546 62.2245 11.4546 62.2246C11.5619 62.4792 11.7329 62.8753 11.8754 63.1951C11.8755 63.1948 11.8755 63.1946 11.8757 63.1943C13.0902 65.9218 14.4807 68.4143 15.9455 70.5331C19.3091 75.3948 23.3218 80.8717 28.5941 80.6704C33.6687 80.4692 35.5871 77.3895 41.7196 77.3895C47.8482 77.3895 49.577 80.6704 54.9426 80.5728C60.4046 80.4692 63.8634 75.6113 67.204 70.7265C70.1441 66.4343 71.7662 62.2449 72.4162 60.3588C72.6099 59.7967 72.3601 59.1785 71.8287 58.911Z" fill="#D6D6D8"/>
<path d="M19.1652 70.5331C17.7003 68.4144 16.3099 65.9219 15.0953 63.1944C15.0952 63.1945 15.0952 63.1948 15.095 63.1952C14.9527 62.8755 14.7831 62.4827 14.6742 62.2247C14.6742 62.2247 14.6744 62.2245 14.6744 62.2244C10.5078 52.3356 8.68829 39.5395 14.0884 30.1669C17.3277 24.545 22.9189 20.8273 29.1125 20.2134C28.5603 20.147 28.0033 20.1123 27.4425 20.1228C20.6411 20.2216 14.3764 24.0794 10.8691 30.1669C5.48813 39.5066 7.26266 52.2741 11.455 62.2244C11.455 62.2245 11.4548 62.2247 11.4548 62.2247C11.5622 62.4792 11.7331 62.8753 11.8756 63.1952C11.8758 63.1948 11.8759 63.1947 11.8759 63.1944C13.0905 65.9219 14.4809 68.4144 15.9456 70.5331C19.3092 75.3948 23.3219 80.8717 28.5942 80.6705C29.113 80.6498 29.5973 80.598 30.058 80.5236C25.6348 79.6266 22.1448 74.84 19.1652 70.5331Z" fill="#C2C2C4"/>
</g>
<defs>
<clipPath id="clip0">
<rect width="80" height="80" fill="white" transform="translate(0 0.675964)"/>
</clipPath>
</defs>
</svg>
