<svg fill="rgba(255,255,255,.8)" height="512" viewBox="0 0 128 128" width="512" xmlns="http://www.w3.org/2000/svg"><g><path d="m28.333 68.127h-4.168a6.864 6.864 0 0 0 -6.856 6.856v28.911a6.864 6.864 0 0 0 6.856 6.856h4.168a6.864 6.864 0 0 0 6.856-6.856v-28.911a6.864 6.864 0 0 0 -6.856-6.856zm3.356 35.767a3.36 3.36 0 0 1 -3.356 3.356h-4.168a3.36 3.36 0 0 1 -3.356-3.356v-28.911a3.36 3.36 0 0 1 3.356-3.356h4.168a3.36 3.36 0 0 1 3.356 3.356z"/><path d="m53.519 75.429h-4.167a6.865 6.865 0 0 0 -6.852 6.856v21.609a6.865 6.865 0 0 0 6.857 6.856h4.167a6.865 6.865 0 0 0 6.858-6.856v-21.609a6.865 6.865 0 0 0 -6.863-6.856zm3.358 28.465a3.361 3.361 0 0 1 -3.358 3.356h-4.167a3.361 3.361 0 0 1 -3.352-3.356v-21.609a3.361 3.361 0 0 1 3.357-3.356h4.167a3.361 3.361 0 0 1 3.358 3.356z"/><path d="m78.707 61.9h-4.169a6.865 6.865 0 0 0 -6.856 6.858v35.135a6.864 6.864 0 0 0 6.856 6.856h4.169a6.864 6.864 0 0 0 6.856-6.856v-35.134a6.865 6.865 0 0 0 -6.856-6.859zm3.356 41.993a3.36 3.36 0 0 1 -3.356 3.356h-4.169a3.36 3.36 0 0 1 -3.356-3.356v-35.134a3.36 3.36 0 0 1 3.356-3.359h4.169a3.36 3.36 0 0 1 3.356 3.358z"/><path d="m103.894 43.606h-4.169a6.865 6.865 0 0 0 -6.857 6.857v53.431a6.865 6.865 0 0 0 6.857 6.856h4.169a6.864 6.864 0 0 0 6.856-6.856v-53.431a6.865 6.865 0 0 0 -6.856-6.857zm3.356 60.288a3.36 3.36 0 0 1 -3.356 3.356h-4.169a3.361 3.361 0 0 1 -3.357-3.356v-53.431a3.361 3.361 0 0 1 3.357-3.357h4.169a3.361 3.361 0 0 1 3.356 3.357z"/><path d="m26.249 55.177a6.686 6.686 0 0 0 5.686-3.177l12.816 3.8c0 .051-.011.1-.011.15a6.7 6.7 0 1 0 13.16-1.729l14.01-8.121a6.68 6.68 0 0 0 11.009-6.98l14.581-10.072a6.773 6.773 0 1 0 -1.988-2.88l-14.584 10.075a6.685 6.685 0 0 0 -10.773 6.827l-14.008 8.124a6.663 6.663 0 0 0 -10.39 1.245l-12.824-3.8c0-.052.007-.1.007-.155a6.691 6.691 0 1 0 -6.691 6.692zm75.561-34.427a3.19 3.19 0 1 1 -2.626 5 3.133 3.133 0 0 1 -.564-1.807 3.194 3.194 0 0 1 3.19-3.193zm-25.19 17.41a3.192 3.192 0 0 1 2.632 1.393 3.078 3.078 0 0 1 .558 1.8 3.186 3.186 0 0 1 -5.958 1.574 3.078 3.078 0 0 1 -.422-1.574 3.194 3.194 0 0 1 3.19-3.193zm-25.18 14.59a3.185 3.185 0 0 1 2.76 1.607 3.084 3.084 0 0 1 .429 1.583 3.2 3.2 0 0 1 -6.39 0 3.145 3.145 0 0 1 .128-.9 3.223 3.223 0 0 1 3.073-2.29zm-25.191-7.456a3.192 3.192 0 1 1 -3.191 3.191 3.195 3.195 0 0 1 3.191-3.191z"/></g></svg>