<svg width="129" height="128" viewBox="0 0 129 128" fill="none" xmlns="http://www.w3.org/2000/svg">
<g clip-path="url(#clip0)">
<path d="M106.468 109.115V123.803C106.468 124.957 105.523 125.902 104.37 125.902H28.8312L64.5021 109.768L93.7942 96.5254H93.8782C98.2633 96.5254 102.125 98.7518 104.37 102.149C105.691 104.142 106.468 106.536 106.468 109.115Z" fill="white"/>
<path d="M64.5024 109.768L28.8314 125.902H24.6348C23.4811 125.902 22.5365 124.957 22.5365 123.803V109.115C22.5365 106.536 23.3131 104.142 24.6348 102.149C26.8796 98.7518 30.7412 96.5254 35.1263 96.5254H35.2103L64.5024 109.768Z" fill="#E9ECEF"/>
<path d="M93.7941 96.5258L64.502 109.768L35.21 96.5258H51.9123V85.5097C55.7728 87.188 60.0329 88.1326 64.502 88.1326C68.9711 88.1326 73.2313 87.188 77.0918 85.5097V96.5258H93.7941Z" fill="#D7E9FF"/>
<path d="M33.0279 56.6582C33.0279 69.5625 40.792 80.6421 51.9126 85.5098V96.5258H35.1262C30.7411 96.5258 26.8796 98.7521 24.6348 102.15V48.2446L33.0279 52.4412V56.6582Z" fill="#069D98"/>
<path d="M93.878 96.5258H77.0917V85.5098C88.2122 80.6421 95.9763 69.5625 95.9763 56.6582V52.4412L104.369 48.2446V102.15C102.125 98.7521 98.2631 96.5258 93.878 96.5258Z" fill="#069D98"/>
<path d="M91.7801 12.89C84.6461 6.19657 75.0563 2.084 64.5023 2.084C53.9484 2.084 44.338 6.17505 37.2245 12.89V12.9105C29.985 19.6859 25.2854 29.1518 24.6973 39.7057V39.8717H33.0279V39.8512H39.3228C41.6516 39.8512 43.5194 37.9834 43.5194 35.6546C43.5194 33.3463 41.6516 31.458 39.3228 31.458H43.5194C45.8482 31.458 47.716 29.5903 47.716 27.2615H58.2074C61.6909 27.2615 64.5023 24.449 64.5023 20.9666C64.5023 24.449 67.3137 27.2615 70.7972 27.2615H81.2886C81.2886 29.5903 83.1769 31.458 85.4852 31.458H89.6818C87.3735 31.458 85.4852 33.3463 85.4852 35.6546C85.4852 37.9834 87.3735 39.8512 89.6818 39.8512H95.9767V39.8717H104.307V39.8512C103.761 29.2337 99.0401 19.7094 91.7801 12.89Z" fill="#07BEB8"/>
<path d="M91.7799 12.89C84.6459 6.19657 75.056 2.084 64.5021 2.084C63.082 2.084 61.6825 2.17006 60.3014 2.31452C69.1894 3.24585 77.2117 7.09408 83.3867 12.89C90.6467 19.7094 95.3679 29.2337 95.914 39.8533H95.9765V39.8717H104.307V39.8512C103.761 29.2337 99.0399 19.7094 91.7799 12.89Z" fill="#069D98"/>
<path d="M64.5021 31.458L68.6987 37.7734L64.5021 44.0478L60.3055 37.7529L64.5021 31.458Z" fill="white"/>
<path d="M121.156 39.8511L95.9764 52.4408V39.8716H104.307L121.156 39.8511Z" fill="#07BEB8"/>
<path d="M64.5022 31.4582L60.3056 37.7531L64.5022 44.048L68.6988 37.7736L64.5022 31.4582ZM95.9766 52.4411V56.6582C95.9766 69.5625 88.2125 80.6421 77.092 85.5097C73.2314 87.188 68.9713 88.1326 64.5022 88.1326C60.0331 88.1326 55.773 87.188 51.9125 85.5097C40.7919 80.6421 33.0278 69.5625 33.0278 56.6582V39.8514H39.3227C41.6515 39.8514 43.5193 37.9836 43.5193 35.6548C43.5193 33.3465 41.6515 31.4582 39.3227 31.4582H43.5193C45.8481 31.4582 47.7159 29.5905 47.7159 27.2616H58.2073C61.6908 27.2616 64.5022 24.4492 64.5022 20.9668C64.5022 24.4492 67.3136 27.2616 70.7971 27.2616H81.2885C81.2885 29.5905 83.1768 31.4582 85.4851 31.4582H89.6817C87.3734 31.4582 85.4851 33.3465 85.4851 35.6548C85.4851 37.9836 87.3734 39.8514 89.6817 39.8514H95.9766V52.4411Z" fill="#D7E9FF"/>
<path d="M87.5834 31.458V32.0431C88.2043 31.6804 88.9164 31.458 89.6817 31.458H87.5834Z" fill="#07BEB8"/>
<path d="M89.6816 39.8511C88.9163 39.8511 88.2042 39.6308 87.5833 39.2691V56.6579C87.5833 69.5622 79.8192 80.6418 68.6987 85.5094C66.0697 86.6528 63.2429 87.4233 60.3055 87.8198C61.6825 88.0042 63.0749 88.1323 64.5021 88.1323C68.9712 88.1323 73.2313 87.1876 77.0919 85.5094C88.2124 80.6418 95.9765 69.5622 95.9765 56.6579V39.8511H89.6816Z" fill="#07BEB8"/>
<path d="M33.0276 39.8716V52.4408L7.84814 39.8511L24.697 39.8716H33.0276Z" fill="#D7E9FF"/>
<path d="M22.5366 111.22C21.3768 111.22 20.4384 110.282 20.4384 109.121C20.4384 101.02 27.0293 94.4292 35.1305 94.4292C36.2913 94.4292 37.2288 95.3677 37.2288 96.5275C37.2288 97.6883 36.2913 98.6258 35.1305 98.6258C29.3438 98.6258 24.6349 103.335 24.6349 109.121C24.6349 110.282 23.6975 111.22 22.5366 111.22Z" fill="#00726C"/>
<path d="M106.468 111.218C105.308 111.218 104.37 110.28 104.37 109.119C104.37 103.335 99.6629 98.6278 93.8782 98.6278C92.7184 98.6278 91.7799 97.6903 91.7799 96.5295C91.7799 95.3697 92.7184 94.4312 93.8782 94.4312C101.975 94.4312 108.566 101.022 108.566 109.119C108.566 110.28 107.629 111.218 106.468 111.218Z" fill="#00726C"/>
<path d="M51.9124 98.6278L35.1302 98.6258C33.9704 98.6258 33.0319 97.6863 33.0319 96.5275C33.0319 95.3677 33.9724 94.4292 35.1302 94.4292L51.9124 94.4312C53.0732 94.4312 54.0107 95.3718 54.0107 96.5295C54.0107 97.6903 53.0711 98.6278 51.9124 98.6278Z" fill="#00726C"/>
<path d="M93.8784 98.6278L77.0921 98.6258C75.9323 98.6258 74.9938 97.6863 74.9938 96.5275C74.9938 95.3677 75.9343 94.4292 77.0921 94.4292L93.8784 94.4312C95.0392 94.4312 95.9767 95.3718 95.9767 96.5295C95.9767 97.6903 95.0372 98.6278 93.8784 98.6278Z" fill="#00726C"/>
<path d="M22.5387 125.902C21.3809 125.902 20.4404 124.964 20.4404 123.804L20.4384 109.122C20.4384 107.964 21.3768 107.023 22.5366 107.023C23.6954 107.023 24.6349 107.962 24.6349 109.122L24.637 123.804C24.637 124.962 23.6995 125.902 22.5387 125.902Z" fill="#00726C"/>
<path d="M24.637 128C22.3225 128 20.4403 126.118 20.4403 123.803C20.4403 122.644 21.3788 121.705 22.5387 121.705C23.6995 121.705 24.637 122.644 24.637 123.803V123.808C25.7979 123.808 26.7354 124.744 26.7354 125.904C26.7354 127.063 25.7979 128 24.637 128Z" fill="#00726C"/>
<path d="M104.37 128C103.21 128 102.271 127.063 102.271 125.902C102.271 124.742 103.21 123.803 104.37 123.803H104.374C104.374 122.644 105.31 121.705 106.47 121.705C107.629 121.705 108.566 122.644 108.566 123.803C108.566 126.118 106.684 128 104.37 128Z" fill="#00726C"/>
<path d="M106.468 125.902C105.308 125.902 104.37 124.964 104.37 123.803V109.119C104.37 107.96 105.308 107.021 106.468 107.021C107.629 107.021 108.566 107.96 108.566 109.119V123.803C108.566 124.964 107.629 125.902 106.468 125.902Z" fill="#00726C"/>
<path d="M104.37 128H24.6369C23.4771 128 22.5386 127.062 22.5386 125.902C22.5386 124.742 23.4771 123.803 24.6369 123.803H104.37C105.531 123.803 106.468 124.742 106.468 125.902C106.468 127.062 105.531 128 104.37 128Z" fill="#00726C"/>
<path d="M51.9126 98.6281C50.7528 98.6281 49.8143 97.6906 49.8143 96.5298V85.5138C49.8143 84.354 50.7528 83.4155 51.9126 83.4155C53.0735 83.4155 54.0109 84.354 54.0109 85.5138V96.5298C54.0109 97.6906 53.0735 98.6281 51.9126 98.6281Z" fill="#00726C"/>
<path d="M77.0921 98.6261C75.9323 98.6261 74.9938 97.6886 74.9938 96.5278V85.5138C74.9938 84.354 75.9323 83.4155 77.0921 83.4155C78.2529 83.4155 79.1904 84.354 79.1904 85.5138V96.5278C79.1904 97.6886 78.2529 98.6261 77.0921 98.6261Z" fill="#00726C"/>
<path d="M64.5022 90.2327C45.9916 90.2327 30.9296 75.1717 30.9296 56.66C30.9296 55.5022 31.8681 54.5617 33.0279 54.5617C34.1887 54.5617 35.1261 55.5022 35.1261 56.66C35.1261 72.8592 48.303 86.0361 64.5022 86.0361C80.7015 86.0361 93.8783 72.8592 93.8783 56.66C93.8783 55.5022 94.8168 54.5617 95.9766 54.5617C97.1374 54.5617 98.0749 55.5022 98.0749 56.66C98.0749 75.1717 83.0139 90.2327 64.5022 90.2327Z" fill="#00726C"/>
<path d="M33.0279 58.7583C31.8681 58.7583 30.9296 57.8188 30.9296 56.66V39.8717C30.9296 38.7139 31.8681 37.7734 33.0279 37.7734C34.1887 37.7734 35.1262 38.7139 35.1262 39.8717V56.66C35.1262 57.8188 34.1887 58.7583 33.0279 58.7583Z" fill="#00726C"/>
<path d="M95.9766 58.7583C94.8168 58.7583 93.8783 57.8188 93.8783 56.66V39.8717C93.8783 38.7139 94.8168 37.7734 95.9766 37.7734C97.1374 37.7734 98.0749 38.7139 98.0749 39.8717V56.66C98.0749 57.8188 97.1374 58.7583 95.9766 58.7583Z" fill="#00726C"/>
<path d="M85.4853 33.5729C82.0151 33.5729 79.1904 30.7481 79.1904 27.278C79.1904 26.1202 80.1289 25.1797 81.2887 25.1797C82.4495 25.1797 83.387 26.1202 83.387 27.278C83.387 28.4337 84.3275 29.3763 85.4853 29.3763C86.6461 29.3763 87.5836 30.3168 87.5836 31.4746C87.5836 32.6323 86.6461 33.5729 85.4853 33.5729Z" fill="#00726C"/>
<path d="M89.6817 41.9658C86.2115 41.9658 83.3868 39.1411 83.3868 35.6709C83.3868 32.2008 86.2115 29.3761 89.6817 29.3761C90.8425 29.3761 91.78 30.3166 91.78 31.4744C91.78 32.6321 90.8425 33.5727 89.6817 33.5727C88.524 33.5727 87.5834 34.5152 87.5834 35.6709C87.5834 36.8266 88.524 37.7692 89.6817 37.7692C90.8425 37.7692 91.78 38.7098 91.78 39.8675C91.78 41.0253 90.8425 41.9658 89.6817 41.9658Z" fill="#00726C"/>
<path d="M89.6817 33.5726H85.4851C84.3253 33.5726 83.3868 32.6321 83.3868 31.4744C83.3868 30.3166 84.3253 29.3761 85.4851 29.3761H89.6817C90.8425 29.3761 91.78 30.3166 91.78 31.4744C91.78 32.6321 90.8425 33.5726 89.6817 33.5726Z" fill="#00726C"/>
<path d="M95.9767 41.9657H89.6818C88.522 41.9657 87.5835 41.0252 87.5835 39.8674C87.5835 38.7097 88.522 37.7691 89.6818 37.7691H95.9767C97.1375 37.7691 98.075 38.7097 98.075 39.8674C98.075 41.0252 97.1375 41.9657 95.9767 41.9657Z" fill="#00726C"/>
<path d="M43.5211 33.5729C42.3613 33.5729 41.4229 32.6323 41.4229 31.4746C41.4229 30.3168 42.3613 29.3763 43.5211 29.3763C44.6799 29.3763 45.6194 28.4337 45.6194 27.278C45.6194 26.1202 46.5579 25.1797 47.7177 25.1797C48.8786 25.1797 49.816 26.1202 49.816 27.278C49.816 30.7481 46.9913 33.5729 43.5211 33.5729Z" fill="#00726C"/>
<path d="M39.3247 41.9658C38.1649 41.9658 37.2264 41.0253 37.2264 39.8675C37.2264 38.7098 38.1649 37.7692 39.3247 37.7692C40.4835 37.7692 41.423 36.8266 41.423 35.6709C41.423 34.5152 40.4835 33.5727 39.3247 33.5727C38.1649 33.5727 37.2264 32.6321 37.2264 31.4744C37.2264 30.3166 38.1649 29.3761 39.3247 29.3761C42.7949 29.3761 45.6196 32.2008 45.6196 35.6709C45.6196 39.1411 42.7949 41.9658 39.3247 41.9658Z" fill="#00726C"/>
<path d="M43.5213 33.5726H39.3247C38.1649 33.5726 37.2264 32.6321 37.2264 31.4744C37.2264 30.3166 38.1649 29.3761 39.3247 29.3761H43.5213C44.6821 29.3761 45.6196 30.3166 45.6196 31.4744C45.6196 32.6321 44.6821 33.5726 43.5213 33.5726Z" fill="#00726C"/>
<path d="M39.3248 41.9657H33.0299C31.8701 41.9657 30.9316 41.0252 30.9316 39.8674C30.9316 38.7097 31.8701 37.7691 33.0299 37.7691H39.3248C40.4856 37.7691 41.4231 38.7097 41.4231 39.8674C41.4231 41.0252 40.4856 41.9657 39.3248 41.9657Z" fill="#00726C"/>
<path d="M58.2072 29.3763H47.7178C46.558 29.3763 45.6195 28.4357 45.6195 27.278C45.6195 26.1202 46.558 25.1797 47.7178 25.1797H58.2072C59.368 25.1797 60.3055 26.1202 60.3055 27.278C60.3055 28.4357 59.368 29.3763 58.2072 29.3763Z" fill="#00726C"/>
<path d="M104.315 41.9659C103.207 41.9659 102.279 41.0971 102.221 39.9762C101.178 19.9133 84.61 4.19663 64.502 4.19663C44.472 4.19663 27.908 19.8457 26.7891 39.8235C26.7266 40.9792 25.7154 41.8481 24.5781 41.802C23.4194 41.7374 22.5342 40.7467 22.6018 39.591C23.8415 17.3909 42.2476 4.57764e-05 64.502 4.57764e-05C86.8425 4.57764e-05 105.253 17.4646 106.414 39.759C106.472 40.9147 105.583 41.9013 104.426 41.9618C104.388 41.9659 104.351 41.9659 104.315 41.9659Z" fill="#00726C"/>
<path d="M58.2073 29.3763C57.0475 29.3763 56.109 28.4357 56.109 27.278C56.109 26.1202 57.0475 25.1797 58.2073 25.1797C60.5218 25.1797 62.4039 23.2976 62.4039 20.9831C62.4039 19.8254 63.3424 18.8848 64.5022 18.8848C65.663 18.8848 66.6005 19.8254 66.6005 20.9831C66.6005 25.6121 62.8363 29.3763 58.2073 29.3763Z" fill="#00726C"/>
<path d="M81.2884 29.3763H70.799C69.6392 29.3763 68.7007 28.4357 68.7007 27.278C68.7007 26.1202 69.6392 25.1797 70.799 25.1797H81.2884C82.4492 25.1797 83.3867 26.1202 83.3867 27.278C83.3867 28.4357 82.4492 29.3763 81.2884 29.3763Z" fill="#00726C"/>
<path d="M70.7991 29.3763C66.1701 29.3763 62.4059 25.6121 62.4059 20.9831C62.4059 19.8254 63.3444 18.8848 64.5042 18.8848C65.665 18.8848 66.6025 19.8254 66.6025 20.9831C66.6025 23.2976 68.4846 25.1797 70.7991 25.1797C71.9599 25.1797 72.8973 26.1202 72.8973 27.278C72.8973 28.4357 71.9599 29.3763 70.7991 29.3763Z" fill="#00726C"/>
<path d="M28.8352 128C28.036 128 27.2717 127.541 26.9213 126.766C26.4428 125.711 26.9131 124.466 27.9684 123.99L93.0134 94.5717C94.0707 94.0932 95.3156 94.5635 95.7899 95.6188C96.2684 96.6751 95.7981 97.9189 94.7428 98.3953L29.6978 127.813C29.4161 127.941 29.1251 128 28.8352 128Z" fill="#00726C"/>
<path d="M64.5105 111.872C64.2216 111.872 63.9296 111.814 63.6489 111.686L34.2656 98.3973C33.2103 97.9188 32.7401 96.6771 33.2185 95.6208C33.697 94.5655 34.9357 94.0962 35.9951 94.5737L65.3773 107.864C66.4326 108.343 66.9029 109.585 66.4244 110.641C66.074 111.415 65.3107 111.872 64.5105 111.872Z" fill="#00726C"/>
<path d="M104.37 104.254C103.21 104.254 102.271 103.315 102.271 102.156V48.2609C102.271 47.1032 103.21 46.1626 104.37 46.1626C105.53 46.1626 106.468 47.1032 106.468 48.2609V102.156C106.468 103.313 105.53 104.254 104.37 104.254Z" fill="#00726C"/>
<path d="M95.9766 41.9678C94.8188 41.9678 93.8783 41.0283 93.8783 39.8695C93.8783 38.7117 94.8168 37.7712 95.9766 37.7712L121.156 37.7691C122.315 37.7691 123.254 38.7097 123.254 39.8674C123.254 41.0252 122.317 41.9657 121.156 41.9657L95.9766 41.9678Z" fill="#00726C"/>
<path d="M95.9787 54.5557C95.2083 54.5557 94.4685 54.1315 94.0987 53.3949C93.5803 52.359 94.0003 51.0978 95.0372 50.5794L120.217 37.9897C121.252 37.4712 122.512 37.8913 123.032 38.9271C123.551 39.964 123.131 41.2252 122.095 41.7436L96.9152 54.3334C96.615 54.484 96.2933 54.5557 95.9787 54.5557Z" fill="#00726C"/>
<path d="M24.6349 104.254C23.4751 104.254 22.5366 103.315 22.5366 102.156V48.2609C22.5366 47.1032 23.4751 46.1626 24.6349 46.1626C25.7957 46.1626 26.7332 47.1032 26.7332 48.2609V102.156C26.7332 103.313 25.7957 104.254 24.6349 104.254Z" fill="#00726C"/>
<path d="M33.0278 41.9678L7.84829 41.9657C6.68849 41.9657 5.75 41.0252 5.75 39.8674C5.75 38.7097 6.69054 37.7691 7.84829 37.7691L33.0278 37.7712C34.1886 37.7712 35.1261 38.7117 35.1261 39.8695C35.1261 41.0283 34.1866 41.9678 33.0278 41.9678Z" fill="#00726C"/>
<path d="M33.0255 54.5557C32.711 54.5557 32.3893 54.484 32.0901 54.3355L6.91059 41.7457C5.87374 41.2273 5.45367 39.966 5.9721 38.9302C6.49257 37.8934 7.75175 37.4733 8.7886 37.9917L33.9681 50.5815C35.0039 51.0999 35.424 52.3611 34.9056 53.398C34.5367 54.1316 33.796 54.5557 33.0255 54.5557Z" fill="#00726C"/>
<path d="M64.5021 33.5729C63.3423 33.5729 62.4038 32.6323 62.4038 31.4746V20.9831C62.4038 19.8254 63.3423 18.8848 64.5021 18.8848C65.6629 18.8848 66.6004 19.8254 66.6004 20.9831V31.4746C66.6004 32.6323 65.6629 33.5729 64.5021 33.5729Z" fill="#00726C"/>
<path d="M41.4229 20.9847C37.9527 20.9847 35.126 18.16 35.126 14.6878C35.126 13.5301 36.0645 12.5895 37.2243 12.5895C38.3851 12.5895 39.3226 13.5301 39.3226 14.6878C39.3226 15.8455 40.2652 16.7881 41.4229 16.7881C42.5837 16.7881 43.5212 17.7287 43.5212 18.8864C43.5212 20.0452 42.5837 20.9847 41.4229 20.9847Z" fill="#00726C"/>
<path d="M64.5021 20.9852H41.423C40.2632 20.9852 39.3247 20.0457 39.3247 18.8869C39.3247 17.7292 40.2632 16.7886 41.423 16.7886H64.5021C65.663 16.7886 66.6004 17.7292 66.6004 18.8869C66.6004 20.0457 65.663 20.9852 64.5021 20.9852Z" fill="#00726C"/>
<path d="M37.2243 16.7868C36.0645 16.7868 35.126 15.8462 35.126 14.6884V12.8943C35.126 11.7355 36.0645 10.796 37.2243 10.796C38.3852 10.796 39.3227 11.7355 39.3227 12.8943V14.6884C39.3227 15.8462 38.3852 16.7868 37.2243 16.7868Z" fill="#00726C"/>
<path d="M87.5813 20.9847C86.4205 20.9847 85.483 20.0452 85.483 18.8864C85.483 17.7287 86.4205 16.7881 87.5813 16.7881C88.7391 16.7881 89.6817 15.8455 89.6817 14.6878C89.6817 13.5301 90.6201 12.5895 91.7799 12.5895C92.9408 12.5895 93.8782 13.5301 93.8782 14.6878C93.8782 18.16 91.0515 20.9847 87.5813 20.9847Z" fill="#00726C"/>
<path d="M87.5813 20.9852H64.5021C63.3423 20.9852 62.4038 20.0457 62.4038 18.8869C62.4038 17.7292 63.3423 16.7886 64.5021 16.7886H87.5813C88.7421 16.7886 89.6796 17.7292 89.6796 18.8869C89.6796 20.0457 88.7421 20.9852 87.5813 20.9852Z" fill="#00726C"/>
<path d="M91.78 16.7868C90.6202 16.7868 89.6816 15.8462 89.6816 14.6884V12.8943C89.6816 11.7355 90.6202 10.796 91.78 10.796C92.9409 10.796 93.8784 11.7355 93.8784 12.8943V14.6884C93.8784 15.8462 92.9409 16.7868 91.78 16.7868Z" fill="#00726C"/>
<path d="M68.7007 39.8696C68.0235 39.8696 67.3554 39.5427 66.9528 38.9362L62.7562 32.6393C62.1118 31.6762 62.374 30.3709 63.3371 29.7285C64.3053 29.082 65.6035 29.3443 66.2479 30.3094L70.4445 36.6063C71.0889 37.5694 70.8266 38.8747 69.8636 39.5171C69.5039 39.7558 69.0992 39.8696 68.7007 39.8696Z" fill="#00726C"/>
<path d="M64.5002 46.1624C64.1016 46.1624 63.6949 46.0487 63.3373 45.8099C62.3722 45.1655 62.1119 43.8643 62.7564 42.8992L66.953 36.6063C67.5954 35.6412 68.8986 35.381 69.8637 36.0254C70.8289 36.6699 71.0891 37.9711 70.4447 38.9362L66.2481 45.229C65.8454 45.8356 65.1784 46.1624 64.5002 46.1624Z" fill="#00726C"/>
<path d="M64.5045 46.1624C63.8272 46.1624 63.1592 45.8355 62.7566 45.229L58.56 38.9341C57.9155 37.971 58.1758 36.6658 59.1409 36.0234C60.106 35.3769 61.4093 35.6391 62.0517 36.6043L66.2483 42.8992C66.8927 43.8622 66.6325 45.1675 65.6673 45.8099C65.3077 46.0486 64.903 46.1624 64.5045 46.1624Z" fill="#00726C"/>
<path d="M60.3038 39.8675C59.9052 39.8675 59.5005 39.7538 59.1409 39.5151C58.1758 38.8727 57.9155 37.5694 58.56 36.6043L62.7566 30.3094C63.3969 29.3443 64.6981 29.082 65.6673 29.7285C66.6325 30.3709 66.8927 31.6741 66.2483 32.6393L62.0517 38.9341C61.649 39.5407 60.982 39.8675 60.3038 39.8675Z" fill="#00726C"/>
</g>
<defs>
<clipPath id="clip0">
<rect width="128" height="128" fill="white" transform="translate(0.5)"/>
</clipPath>
</defs>
</svg>
