<?xml version="1.0"?>
<svg fill="rgba(255,255,255,.8)" xmlns="http://www.w3.org/2000/svg" id="Icons" viewBox="0 0 74 74" width="512" height="512"><path d="M27.607,47.485a1,1,0,0,1-.021-2l6.612-.141a1.011,1.011,0,0,1,1.021.979,1,1,0,0,1-.979,1.021l-6.612.141Z"/><path d="M38.8,63.963a6.3,6.3,0,0,1-1.963-.314l-21.911-7.2a11.756,11.756,0,0,0-2.634-.54,1,1,0,1,1,.17-1.993,13.788,13.788,0,0,1,3.085.632l21.914,7.2a4.253,4.253,0,0,0,3.833-.6L68.945,41.126a2.549,2.549,0,0,0-2.911-4.184L42.847,52.2a1,1,0,0,1-1.077.014l-8.078-5.018a1,1,0,0,1,.506-1.85l13.248-.293a2.354,2.354,0,0,0,2.3-2.149,1.4,1.4,0,0,0,.008-.192,2.343,2.343,0,0,0-2.087-2.335L22.957,37.537a16.591,16.591,0,0,0-7.471.885l-2.761,1.018a1,1,0,1,1-.691-1.877l2.767-1.02a18.613,18.613,0,0,1,8.384-.993l24.7,2.837A4.34,4.34,0,0,1,51.75,42.71a3.377,3.377,0,0,1-.02.405,4.258,4.258,0,0,1-.205.98l13.422-8.833a4.549,4.549,0,0,1,5.169,7.483L42.474,62.77A6.213,6.213,0,0,1,38.8,63.963ZM37.6,47.27l4.678,2.905,4.734-3.113Z"/><path d="M48.381,40.5A1,1,0,0,1,48,38.58l9.25-3.833a5.233,5.233,0,0,1,6.084,1.584l.566.716a1,1,0,1,1-1.569,1.24l-.566-.716a3.227,3.227,0,0,0-3.75-.977l-9.25,3.833A1,1,0,0,1,48.381,40.5Z"/><path d="M8.425,60.872H4a2,2,0,0,1-2-2V35.08a2,2,0,0,1,2-2H8.425a4.959,4.959,0,0,1,4.954,4.954V55.917A4.959,4.959,0,0,1,8.425,60.872ZM4,35.08V58.872H8.425a2.957,2.957,0,0,0,2.954-2.954V38.033A2.957,2.957,0,0,0,8.425,35.08Z"/><path d="M40,29.963a29.888,29.888,0,0,1-21.636-9.271,1,1,0,0,1,0-1.389,29.893,29.893,0,0,1,43.274,0,1,1,0,0,1,0,1.389A29.888,29.888,0,0,1,40,29.963ZM20.5,20A27.861,27.861,0,0,0,59.5,20,27.877,27.877,0,0,0,20.5,20Z"/><path d="M40,29.963A9.963,9.963,0,1,1,49.963,20,9.974,9.974,0,0,1,40,29.963Zm0-17.926A7.963,7.963,0,1,0,47.963,20,7.972,7.972,0,0,0,40,12.037Z"/><path d="M40,25.042A5.042,5.042,0,1,1,45.042,20,5.048,5.048,0,0,1,40,25.042Zm0-8.084A3.042,3.042,0,1,0,43.042,20,3.046,3.046,0,0,0,40,16.958Z"/></svg>
