<svg width="64" height="64" viewBox="0 0 64 64" fill="none" xmlns="http://www.w3.org/2000/svg">
<g clip-path="url(#clip0)">
<path d="M59.01 10.14C55.64 6.69354 51.1322 4.79541 46.3167 4.79541C41.5755 4.79541 37.1176 6.64204 33.7641 9.99566L32.0334 11.7275L30.301 9.99516C26.9478 6.64191 22.4907 4.79529 17.7509 4.79529C13.0095 4.79529 8.55175 6.64191 5.19875 9.99516C1.84625 13.3475 0 17.8049 0 22.5463C0 27.2876 1.84625 31.745 5.19875 35.0974L27.384 57.2825C28.6656 58.5639 30.3486 59.2046 32.032 59.2046C33.715 59.2045 35.3984 58.5639 36.6796 57.2826L58.722 35.2423C65.6451 28.3189 65.7744 17.0583 59.01 10.14ZM56.3979 32.9183L34.3556 54.9589C33.0742 56.2401 30.9893 56.2401 29.708 54.9588L7.52262 32.7733C4.79087 30.0416 3.2865 26.4096 3.2865 22.5462C3.2865 18.6827 4.79087 15.0507 7.52262 12.3189C10.2549 9.58653 13.8874 8.08179 17.7509 8.08179C21.6129 8.08179 25.2446 9.58653 27.977 12.3189L29.7103 14.0522L27.0561 16.7083C26.4146 17.3503 26.4151 18.3907 27.057 19.0322C27.3779 19.3528 27.7981 19.513 28.2185 19.513C28.6394 19.513 29.06 19.3523 29.3809 19.0313L36.0881 12.3188C38.8205 9.58641 42.4529 8.08166 46.3164 8.08166C50.24 8.08166 53.9133 9.62866 56.6598 12.4375C62.1718 18.0747 62.0541 27.2621 56.3979 32.9183Z" fill="white" fill-opacity="0.5"/>
<path d="M58.2865 21.8004C58.1059 18.8779 56.8678 16.1296 54.8002 14.0617C53.3362 12.5977 51.5195 11.534 49.5469 10.9849C48.6726 10.7416 47.7667 11.2532 47.5234 12.1276C47.2802 13.0019 47.7918 13.9079 48.6662 14.1511C50.0945 14.5485 51.412 15.3211 52.4764 16.3855C53.9769 17.886 54.8754 19.8809 55.0065 22.0027C55.0604 22.8741 55.7838 23.5447 56.6452 23.5447C56.6792 23.5447 56.7135 23.5437 56.748 23.5415C57.6538 23.4858 58.3425 22.7062 58.2865 21.8004Z" fill="white" fill-opacity="0.5"/>
</g>
<defs>
<clipPath id="clip0">
<rect width="64" height="64" fill="white"/>
</clipPath>
</defs>
</svg>
