<svg width="80" height="81" viewBox="0 0 80 81" fill="none" xmlns="http://www.w3.org/2000/svg">
<g clip-path="url(#clip0)">
<path d="M40.5225 17.8916C40.5106 17.7684 40.505 17.6451 40.505 17.5215C40.505 15.7124 41.69 14.2407 43.1461 14.2407C44.6362 14.2407 45.8034 15.6818 45.8034 17.5215C45.8034 17.9381 45.7408 18.3396 45.624 18.7106C46.0608 18.0165 46.3134 17.1431 46.3134 16.2274C46.3134 14.0276 44.9072 12.2376 43.179 12.2376C41.4505 12.2376 40.0447 14.0274 40.0447 16.2274C40.0447 16.7682 40.1294 17.2976 40.297 17.8054C40.37 17.8332 40.4453 17.8621 40.5225 17.8916Z" fill="white"/>
<path d="M32.7198 14.414C32.8142 14.3996 32.9006 14.3931 32.9865 14.3931C34.1456 14.3931 35.1848 15.5307 35.4572 17.0979C35.4845 17.2698 35.5017 17.441 35.5093 17.6099C35.5847 17.5717 35.6612 17.5357 35.7392 17.5024C35.7775 17.2307 35.7961 16.976 35.7961 16.7203C35.7961 14.6912 34.7212 12.977 33.4494 12.977C32.3661 12.977 31.4533 14.1701 31.1931 15.7817C31.4894 15.0467 32.0301 14.5285 32.7198 14.414Z" fill="white"/>
<path d="M54.5456 55.3412C54.837 54.1056 55.4167 50.9506 54.868 47.1342C54.1745 42.3108 47.3875 27.2915 46.2195 25.6144C45.5383 25.7096 43.728 26.7557 42.2599 27.604C40.5574 28.5876 38.7964 29.605 37.5991 29.9507C37.3491 30.0215 37.0877 30.0565 36.8183 30.0565C35.0685 30.0565 33.1746 28.5771 31.9535 27.4118C31.7402 29.673 30.5351 32.5422 29.2312 34.0169C28.4076 34.9614 27.6715 37.1191 26.9596 39.2059C26.3002 41.1383 25.6185 43.1367 24.7838 44.4547C23.0949 47.0862 22.1262 52.1976 23.3551 55.1045C23.9498 56.5135 26.1082 58.1776 28.0124 59.6454C30.3413 61.4409 32.3524 62.9912 32.5743 64.5546C32.8332 66.4032 31.8501 67.4277 30.8669 67.9135L33.3608 70.7671C33.7462 70.8255 34.6741 70.9375 36.1283 70.9375C37.8293 70.9375 39.7174 70.7888 41.7388 70.4947C46.7017 69.7596 50.1584 65.6697 50.842 64.8013C50.8456 63.6508 50.8808 58.5321 51.2164 56.9317C51.3467 56.3153 51.8472 55.2837 53.7376 55.2837C54.0315 55.2832 54.3114 55.309 54.5456 55.3412Z" fill="white"/>
<path d="M32.8887 23.6573C32.986 24.0357 33.8474 25.0037 35.1871 25.8826C35.3773 26.0046 35.5557 26.126 35.7232 26.2398C36.4663 26.7448 36.7968 26.9521 37.331 26.8801C38.1176 26.7769 41.0152 25.0201 42.2527 24.2698L42.5607 24.0832C43.0214 23.8026 43.3897 23.6109 43.6857 23.4568C44.2716 23.152 44.3246 23.1027 44.3496 22.9915C44.2832 22.8192 43.7361 22.3577 42.6869 21.9971C42.3535 21.8777 41.8804 21.6887 41.3322 21.4699C40.1465 20.9965 38.5222 20.3487 37.864 20.2321C37.8358 20.2268 37.8094 20.2251 37.7797 20.2251C37.2194 20.2251 36.0874 20.9281 34.9624 21.9742C34.4079 22.4748 33.3254 23.3196 32.8887 23.6573Z" fill="#E69629"/>
<path d="M22.9919 62.4776C22.5046 61.6617 22.0833 60.9566 21.856 60.6051C20.9594 59.2097 19.4035 57.6509 18.6619 57.6509C18.5969 57.6509 18.5627 57.6661 18.5405 57.6792C18.1447 57.9045 17.8121 58.5913 17.49 59.2548C17.0452 60.1728 16.5408 61.2134 15.6094 61.7776C14.9204 62.1958 13.8669 62.4242 12.8488 62.6456C12.1243 62.803 10.428 63.1709 10.3484 63.5147C10.2385 63.9784 10.3407 64.4573 10.4704 65.0636C10.623 65.7789 10.8135 66.6689 10.6513 67.7615C10.5369 68.4468 10.329 69.1014 10.1273 69.7345C9.84711 70.6153 9.52945 71.6142 9.80336 71.9212C10.1412 72.2195 12.1794 72.5492 13.6676 72.7903C15.5382 73.0929 17.4724 73.4062 18.6569 73.9024L18.9708 74.0346C21.0925 74.9262 25.0417 76.586 27.0367 76.586C27.2183 76.586 27.373 76.5713 27.4978 76.5432C27.8419 76.3116 29.2995 75.2645 29.5734 73.977C29.9475 72.3178 28.4269 70.3825 27.4877 69.3764C26.4452 68.2568 24.4494 64.9164 22.9919 62.4776Z" fill="#E69629"/>
<path d="M68.0874 66.4529L67.8443 66.3249C66.1743 65.4421 65.2963 63.0462 65.4126 61.2403C65.4343 60.9076 65.3929 60.6497 65.3255 60.452C65.0171 60.9593 64.5766 61.6001 64.0532 62.1234C63.164 63.0128 60.9932 63.9723 59.0368 63.9723C58.3071 63.9723 57.642 63.8437 57.06 63.5898C55.1071 62.7381 54.8409 60.2959 54.8359 59.0715C54.807 59.0797 54.7806 59.089 54.757 59.1001C54.6376 59.5222 54.7532 60.9448 54.8312 61.9025C54.8729 62.4148 54.9159 62.9445 54.9414 63.4306C55.052 65.5724 54.3698 69.2052 53.7778 71.8757C53.2157 74.4901 54.2617 76.3232 55.5315 76.719C55.6456 76.7552 55.7739 76.773 55.9148 76.773C57.0846 76.773 59.022 75.5623 60.7348 73.7598C61.9517 72.4802 64.6601 71.0973 67.0498 69.877C68.3969 69.1891 69.7899 68.4776 70.1858 68.1159C70.274 68.0338 70.2871 67.9879 70.2874 67.9876C70.2624 67.5948 68.6823 66.7651 68.0874 66.4529Z" fill="#E69629"/>
<mask id="path-7-inside-1" fill="white">
<path d="M72.0422 64.909C69.6962 63.9485 68.6926 62.6734 68.7897 60.7707C68.8897 58.5501 67.6298 56.9239 67.0315 56.2812C67.3929 54.9004 68.4492 50.1241 67.0326 45.9752C65.5103 41.5346 60.8624 34.7525 56.0666 28.0859C54.1033 25.3481 54.0105 22.3718 53.9032 18.9257C53.8003 15.6389 53.6844 11.9133 51.8514 7.77156C49.8585 3.26189 45.8594 0.675964 40.8793 0.675964C37.9167 0.675964 34.8756 1.6019 32.5354 3.21611C27.7433 6.52344 28.3767 13.7342 28.7959 18.5053C28.8534 19.1587 28.9073 19.7759 28.9389 20.3028C29.2179 24.9759 28.964 27.439 28.632 28.1876C28.4172 28.6768 27.3597 30.069 26.2405 31.5432C25.083 33.0679 23.7706 34.7957 22.695 36.4058C21.4116 38.3435 20.3755 41.305 19.3736 44.1689C18.6405 46.2644 17.948 48.2439 17.2739 49.4275C15.9963 51.7031 16.3142 53.8251 16.5796 54.8059C16.0958 55.1418 15.3971 55.8037 14.8072 57.0506C14.0942 58.5718 12.6477 59.3892 9.63974 59.9676C8.2574 60.2504 7.30428 60.8317 6.80584 61.6951C6.08053 62.9518 6.47569 64.5307 6.836 65.6101C7.3685 67.1962 7.03662 68.2002 6.43334 70.0235C6.29428 70.444 6.13662 70.9205 5.97694 71.4457C5.72538 72.2751 5.81616 73.0286 6.246 73.6865C7.38193 75.4229 10.6969 76.0354 14.1094 76.4385C16.1469 76.6804 18.3769 77.4952 20.5338 78.2835C22.647 79.0557 24.8323 79.8544 26.8186 80.0967C27.1205 80.1347 27.4195 80.1536 27.7078 80.1536C30.7068 80.1536 32.0618 78.1638 32.4915 77.3463C33.5687 77.1264 37.2842 76.4225 41.1135 76.3279C44.9368 76.2189 48.6358 76.9739 49.6838 77.2083C50.0132 77.8389 50.8818 79.2791 52.2661 80.0214C53.0271 80.4374 54.086 80.6758 55.1705 80.6758C55.1708 80.6758 55.1705 80.6758 55.1708 80.6758C56.3291 80.6758 58.5327 80.4019 60.2767 78.5669C62.0163 76.7238 66.3625 74.3702 69.5362 72.6519C70.2445 72.2685 70.907 71.9096 71.4879 71.586C73.2707 70.5977 74.2435 69.1857 74.1568 67.712C74.0843 66.4873 73.274 65.4135 72.0422 64.909ZM43.1788 12.2376C44.9071 12.2376 46.3132 14.0275 46.3132 16.2275C46.3132 17.1429 46.0605 18.0164 45.6238 18.7106C45.7402 18.3396 45.8032 17.9381 45.8032 17.5215C45.8032 15.6818 44.636 14.2408 43.1459 14.2408C41.6896 14.2408 40.5048 15.7125 40.5048 17.5215C40.5048 17.6451 40.5109 17.7684 40.5223 17.8917C40.4451 17.8623 40.3699 17.8332 40.2965 17.8054C40.1288 17.2976 40.0441 16.7682 40.0441 16.2275C40.0443 14.0276 41.4502 12.2376 43.1788 12.2376ZM37.8638 20.2328C38.5223 20.349 40.146 20.9971 41.3321 21.4706C41.8802 21.6893 42.3538 21.8784 42.6868 21.9978C43.736 22.3584 44.2832 22.8198 44.3494 22.9921C44.3246 23.1035 44.2715 23.1526 43.6855 23.4574C43.3896 23.6113 43.0215 23.8029 42.5605 24.0838L42.2526 24.2704C41.0151 25.0209 38.1174 26.7779 37.3309 26.8807C36.7965 26.9526 36.466 26.7451 35.7231 26.2404C35.5554 26.1263 35.3771 26.0051 35.187 25.8832C33.8475 25.004 32.9857 24.0363 32.8886 23.6579C33.3253 23.3204 34.4078 22.4754 34.962 21.9749C36.087 20.9289 37.219 20.2259 37.7793 20.2259C37.809 20.2254 37.8359 20.2275 37.8638 20.2328ZM33.4489 12.9765C34.721 12.9765 35.7956 14.6906 35.7956 16.7198C35.7956 16.9757 35.7771 17.2303 35.7387 17.502C35.6607 17.5353 35.5842 17.5715 35.5089 17.6095C35.5012 17.4403 35.4837 17.2693 35.4567 17.0975C35.1845 15.5303 34.1451 14.3926 32.9861 14.3926C32.9003 14.3926 32.814 14.3992 32.7193 14.4136C32.0298 14.5284 31.4889 15.0462 31.1925 15.7809C31.4529 14.1695 32.3659 12.9765 33.4489 12.9765ZM29.5736 73.9769C29.2997 75.2646 27.8419 76.3116 27.4979 76.5432C27.3731 76.5713 27.2186 76.586 27.0369 76.586C25.0419 76.586 21.0927 74.9261 18.971 74.0346L18.657 73.9024C17.4722 73.4058 15.5382 73.093 13.6677 72.7902C12.1794 72.5491 10.1415 72.2194 9.80349 71.9212C9.52958 71.614 9.84724 70.6152 10.1274 69.7344C10.3291 69.1013 10.5374 68.4468 10.6515 67.7615C10.8133 66.6688 10.6232 65.7785 10.4705 65.0635C10.341 64.4571 10.2386 63.9784 10.3485 63.5146C10.4282 63.171 12.1244 62.8031 12.8489 62.6456C13.8674 62.4242 14.9208 62.1957 15.6096 61.7776C16.541 61.2134 17.0453 60.1729 17.4902 59.2548C17.8122 58.5912 18.1449 57.9045 18.5406 57.6792C18.563 57.6657 18.597 57.6509 18.662 57.6509C19.4036 57.6509 20.9595 59.2095 21.8561 60.6051C22.0834 60.9565 22.5047 61.6614 22.992 62.4776C24.4497 64.9165 26.4455 68.2568 27.4878 69.3762C28.427 70.3824 29.9475 72.3176 29.5736 73.9769ZM51.2166 56.9315C50.8815 58.532 50.846 63.6507 50.8422 64.8012C50.1586 65.6696 46.7019 69.7593 41.739 70.4946C39.7174 70.7883 37.8298 70.9374 36.1285 70.9374C34.6743 70.9374 33.7464 70.8251 33.3611 70.7669L30.8672 67.9134C31.8503 67.4276 32.8334 66.4031 32.5745 64.5545C32.3526 62.9912 30.3415 61.4407 28.0126 59.6453C26.1084 58.1775 23.95 56.5137 23.3553 55.1043C22.1264 52.1978 23.0952 47.0864 24.7841 44.4545C25.6187 43.1367 26.3005 41.1381 26.9598 39.2058C27.6717 37.1189 28.4079 34.9611 29.2314 34.0168C30.5353 32.5421 31.7403 29.6729 31.9537 27.4116C33.1746 28.5769 35.0687 30.0563 36.8185 30.0563C37.0879 30.0563 37.3495 30.0212 37.5993 29.9505C38.7965 29.6048 40.5573 28.5874 42.2601 27.6038C43.7282 26.7556 45.5385 25.7095 46.2198 25.6143C47.3877 27.2915 54.1747 42.3108 54.8682 47.1341C55.4169 50.9505 54.8372 54.1053 54.5458 55.3411C54.3113 55.3089 54.0318 55.2831 53.738 55.2831C51.8474 55.2832 51.3469 56.3151 51.2166 56.9315ZM70.1864 68.1165C69.7906 68.4782 68.3975 69.1898 67.0503 69.8776C64.6605 71.0976 61.9517 72.4808 60.7353 73.7604C59.0225 75.5629 57.0852 76.7736 55.9153 76.7736C55.7746 76.7736 55.6463 76.7558 55.5321 76.7196C54.2621 76.3238 53.2163 74.4905 53.7783 71.8763C54.3703 69.2055 55.0522 65.5731 54.9419 63.4312C54.9164 62.9449 54.8735 62.4153 54.8317 61.9031C54.7538 60.9457 54.6382 59.5229 54.7575 59.1007C54.7811 59.0896 54.8074 59.0803 54.8364 59.0721C54.8414 60.2965 55.1074 62.7388 57.0605 63.5904C57.6425 63.8443 58.3077 63.9729 59.0374 63.9729C60.9938 63.9729 63.1645 63.0134 64.0537 62.124C64.5773 61.6007 65.0176 60.9599 65.3261 60.4526C65.3934 60.6501 65.435 60.9082 65.4131 61.2407C65.2969 63.0467 66.1745 65.4424 67.8448 66.3254L68.0879 66.4534C68.6828 66.7652 70.2629 67.5951 70.2884 67.9884C70.2876 67.9884 70.2745 68.0346 70.1864 68.1165Z"/>
</mask>
<path d="M72.0422 64.909C69.6962 63.9485 68.6926 62.6734 68.7897 60.7707C68.8897 58.5501 67.6298 56.9239 67.0315 56.2812C67.3929 54.9004 68.4492 50.1241 67.0326 45.9752C65.5103 41.5346 60.8624 34.7525 56.0666 28.0859C54.1033 25.3481 54.0105 22.3718 53.9032 18.9257C53.8003 15.6389 53.6844 11.9133 51.8514 7.77156C49.8585 3.26189 45.8594 0.675964 40.8793 0.675964C37.9167 0.675964 34.8756 1.6019 32.5354 3.21611C27.7433 6.52344 28.3767 13.7342 28.7959 18.5053C28.8534 19.1587 28.9073 19.7759 28.9389 20.3028C29.2179 24.9759 28.964 27.439 28.632 28.1876C28.4172 28.6768 27.3597 30.069 26.2405 31.5432C25.083 33.0679 23.7706 34.7957 22.695 36.4058C21.4116 38.3435 20.3755 41.305 19.3736 44.1689C18.6405 46.2644 17.948 48.2439 17.2739 49.4275C15.9963 51.7031 16.3142 53.8251 16.5796 54.8059C16.0958 55.1418 15.3971 55.8037 14.8072 57.0506C14.0942 58.5718 12.6477 59.3892 9.63974 59.9676C8.2574 60.2504 7.30428 60.8317 6.80584 61.6951C6.08053 62.9518 6.47569 64.5307 6.836 65.6101C7.3685 67.1962 7.03662 68.2002 6.43334 70.0235C6.29428 70.444 6.13662 70.9205 5.97694 71.4457C5.72538 72.2751 5.81616 73.0286 6.246 73.6865C7.38193 75.4229 10.6969 76.0354 14.1094 76.4385C16.1469 76.6804 18.3769 77.4952 20.5338 78.2835C22.647 79.0557 24.8323 79.8544 26.8186 80.0967C27.1205 80.1347 27.4195 80.1536 27.7078 80.1536C30.7068 80.1536 32.0618 78.1638 32.4915 77.3463C33.5687 77.1264 37.2842 76.4225 41.1135 76.3279C44.9368 76.2189 48.6358 76.9739 49.6838 77.2083C50.0132 77.8389 50.8818 79.2791 52.2661 80.0214C53.0271 80.4374 54.086 80.6758 55.1705 80.6758C55.1708 80.6758 55.1705 80.6758 55.1708 80.6758C56.3291 80.6758 58.5327 80.4019 60.2767 78.5669C62.0163 76.7238 66.3625 74.3702 69.5362 72.6519C70.2445 72.2685 70.907 71.9096 71.4879 71.586C73.2707 70.5977 74.2435 69.1857 74.1568 67.712C74.0843 66.4873 73.274 65.4135 72.0422 64.909ZM43.1788 12.2376C44.9071 12.2376 46.3132 14.0275 46.3132 16.2275C46.3132 17.1429 46.0605 18.0164 45.6238 18.7106C45.7402 18.3396 45.8032 17.9381 45.8032 17.5215C45.8032 15.6818 44.636 14.2408 43.1459 14.2408C41.6896 14.2408 40.5048 15.7125 40.5048 17.5215C40.5048 17.6451 40.5109 17.7684 40.5223 17.8917C40.4451 17.8623 40.3699 17.8332 40.2965 17.8054C40.1288 17.2976 40.0441 16.7682 40.0441 16.2275C40.0443 14.0276 41.4502 12.2376 43.1788 12.2376ZM37.8638 20.2328C38.5223 20.349 40.146 20.9971 41.3321 21.4706C41.8802 21.6893 42.3538 21.8784 42.6868 21.9978C43.736 22.3584 44.2832 22.8198 44.3494 22.9921C44.3246 23.1035 44.2715 23.1526 43.6855 23.4574C43.3896 23.6113 43.0215 23.8029 42.5605 24.0838L42.2526 24.2704C41.0151 25.0209 38.1174 26.7779 37.3309 26.8807C36.7965 26.9526 36.466 26.7451 35.7231 26.2404C35.5554 26.1263 35.3771 26.0051 35.187 25.8832C33.8475 25.004 32.9857 24.0363 32.8886 23.6579C33.3253 23.3204 34.4078 22.4754 34.962 21.9749C36.087 20.9289 37.219 20.2259 37.7793 20.2259C37.809 20.2254 37.8359 20.2275 37.8638 20.2328ZM33.4489 12.9765C34.721 12.9765 35.7956 14.6906 35.7956 16.7198C35.7956 16.9757 35.7771 17.2303 35.7387 17.502C35.6607 17.5353 35.5842 17.5715 35.5089 17.6095C35.5012 17.4403 35.4837 17.2693 35.4567 17.0975C35.1845 15.5303 34.1451 14.3926 32.9861 14.3926C32.9003 14.3926 32.814 14.3992 32.7193 14.4136C32.0298 14.5284 31.4889 15.0462 31.1925 15.7809C31.4529 14.1695 32.3659 12.9765 33.4489 12.9765ZM29.5736 73.9769C29.2997 75.2646 27.8419 76.3116 27.4979 76.5432C27.3731 76.5713 27.2186 76.586 27.0369 76.586C25.0419 76.586 21.0927 74.9261 18.971 74.0346L18.657 73.9024C17.4722 73.4058 15.5382 73.093 13.6677 72.7902C12.1794 72.5491 10.1415 72.2194 9.80349 71.9212C9.52958 71.614 9.84724 70.6152 10.1274 69.7344C10.3291 69.1013 10.5374 68.4468 10.6515 67.7615C10.8133 66.6688 10.6232 65.7785 10.4705 65.0635C10.341 64.4571 10.2386 63.9784 10.3485 63.5146C10.4282 63.171 12.1244 62.8031 12.8489 62.6456C13.8674 62.4242 14.9208 62.1957 15.6096 61.7776C16.541 61.2134 17.0453 60.1729 17.4902 59.2548C17.8122 58.5912 18.1449 57.9045 18.5406 57.6792C18.563 57.6657 18.597 57.6509 18.662 57.6509C19.4036 57.6509 20.9595 59.2095 21.8561 60.6051C22.0834 60.9565 22.5047 61.6614 22.992 62.4776C24.4497 64.9165 26.4455 68.2568 27.4878 69.3762C28.427 70.3824 29.9475 72.3176 29.5736 73.9769ZM51.2166 56.9315C50.8815 58.532 50.846 63.6507 50.8422 64.8012C50.1586 65.6696 46.7019 69.7593 41.739 70.4946C39.7174 70.7883 37.8298 70.9374 36.1285 70.9374C34.6743 70.9374 33.7464 70.8251 33.3611 70.7669L30.8672 67.9134C31.8503 67.4276 32.8334 66.4031 32.5745 64.5545C32.3526 62.9912 30.3415 61.4407 28.0126 59.6453C26.1084 58.1775 23.95 56.5137 23.3553 55.1043C22.1264 52.1978 23.0952 47.0864 24.7841 44.4545C25.6187 43.1367 26.3005 41.1381 26.9598 39.2058C27.6717 37.1189 28.4079 34.9611 29.2314 34.0168C30.5353 32.5421 31.7403 29.6729 31.9537 27.4116C33.1746 28.5769 35.0687 30.0563 36.8185 30.0563C37.0879 30.0563 37.3495 30.0212 37.5993 29.9505C38.7965 29.6048 40.5573 28.5874 42.2601 27.6038C43.7282 26.7556 45.5385 25.7095 46.2198 25.6143C47.3877 27.2915 54.1747 42.3108 54.8682 47.1341C55.4169 50.9505 54.8372 54.1053 54.5458 55.3411C54.3113 55.3089 54.0318 55.2831 53.738 55.2831C51.8474 55.2832 51.3469 56.3151 51.2166 56.9315ZM70.1864 68.1165C69.7906 68.4782 68.3975 69.1898 67.0503 69.8776C64.6605 71.0976 61.9517 72.4808 60.7353 73.7604C59.0225 75.5629 57.0852 76.7736 55.9153 76.7736C55.7746 76.7736 55.6463 76.7558 55.5321 76.7196C54.2621 76.3238 53.2163 74.4905 53.7783 71.8763C54.3703 69.2055 55.0522 65.5731 54.9419 63.4312C54.9164 62.9449 54.8735 62.4153 54.8317 61.9031C54.7538 60.9457 54.6382 59.5229 54.7575 59.1007C54.7811 59.0896 54.8074 59.0803 54.8364 59.0721C54.8414 60.2965 55.1074 62.7388 57.0605 63.5904C57.6425 63.8443 58.3077 63.9729 59.0374 63.9729C60.9938 63.9729 63.1645 63.0134 64.0537 62.124C64.5773 61.6007 65.0176 60.9599 65.3261 60.4526C65.3934 60.6501 65.435 60.9082 65.4131 61.2407C65.2969 63.0467 66.1745 65.4424 67.8448 66.3254L68.0879 66.4534C68.6828 66.7652 70.2629 67.5951 70.2884 67.9884C70.2876 67.9884 70.2745 68.0346 70.1864 68.1165Z" fill="black" stroke="black" stroke-width="2" mask="url(#path-7-inside-1)"/>
</g>
<defs>
<clipPath id="clip0">
<rect width="80" height="80" fill="white" transform="translate(0 0.675964)"/>
</clipPath>
</defs>
</svg>
