<svg width="658" height="295" viewBox="0 0 658 295" fill="none" xmlns="http://www.w3.org/2000/svg">
<g clip-path="url(#clip0)">
<path d="M312.2 293.107H451.861C457.374 293.107 457.383 284.543 451.861 284.543H312.2C306.687 284.543 306.677 293.107 312.2 293.107Z" fill="#E6E6E6"/>
<path d="M274.493 107.003H135.302C133.832 107.004 132.422 107.589 131.382 108.628C130.343 109.667 129.758 111.076 129.756 112.546V140.183C136.699 140.346 141.206 146.073 142.298 153.024V178.079H142.825C142.909 178.079 142.989 178.113 143.048 178.172C143.108 178.231 143.141 178.311 143.141 178.395V191.727C143.141 191.811 143.108 191.891 143.048 191.95C142.989 192.01 142.909 192.043 142.825 192.043H142.298V272.624C142.298 274.394 142.28 277.625 142.28 277.625H274.493C275.964 277.623 277.373 277.038 278.413 275.999C279.453 274.96 280.038 273.551 280.04 272.081V112.546C280.038 111.076 279.453 109.667 278.413 108.628C277.373 107.589 275.964 107.004 274.493 107.003Z" fill="#07BEB8"/>
<path d="M533.107 16.0655V167.293H289.666V100.711C289.663 97.6877 288.46 94.7891 286.322 92.6513C284.183 90.5135 281.283 89.3112 278.258 89.3083H232.602V16.0655H533.107Z" fill="#07BEB8"/>
<path d="M548.137 188.613H289.938V187.559H547.083V9.45783C547.08 7.36231 546.246 5.35329 544.764 3.87154C543.281 2.38978 541.271 1.55629 539.175 1.55391H223.381C221.285 1.55629 219.275 2.38978 217.792 3.87154C216.31 5.35329 215.476 7.36231 215.473 9.45783V88.6255H214.419V9.45783C214.422 7.0829 215.367 4.80601 217.047 3.12669C218.727 1.44736 221.005 0.502734 223.381 0.500061H539.175C541.551 0.50273 543.829 1.44735 545.509 3.12667C547.189 4.806 548.134 7.0829 548.137 9.45783V188.613Z" fill="white"/>
<path d="M523.672 220.756H289.938V219.702H523.672C529.879 219.695 535.829 217.227 540.218 212.841C544.607 208.454 547.076 202.507 547.083 196.303V188.613H289.938V187.559H548.137V196.303C548.13 202.786 545.55 209.002 540.963 213.586C536.377 218.17 530.158 220.748 523.672 220.756Z" fill="white"/>
<path d="M454.304 272.394C441.274 259.889 432.703 243.573 429.947 220.756H333.916C332.939 242.103 324.422 258.113 309.058 272.338L307.435 272.395C323.286 258.037 332.017 241.909 332.884 220.208L332.904 219.702H430.885L430.939 220.168C433.646 243.372 442.397 259.793 455.747 272.31L454.304 272.394Z" fill="white"/>
<path d="M278.003 294.195H130.072V293.141H278.003C281.027 293.137 283.927 291.935 286.066 289.797C288.205 287.66 289.408 284.762 289.411 281.739V100.953C289.408 97.9299 288.205 95.0317 286.066 92.8941C283.927 90.7565 281.027 89.5541 278.003 89.5507H130.072C127.047 89.5541 124.147 90.7565 122.009 92.8941C119.87 95.0317 118.667 97.9299 118.664 100.953V139.968H117.609V100.953C117.613 97.6505 118.927 94.4845 121.263 92.1493C123.6 89.8141 126.768 88.5006 130.072 88.4968H278.003C281.307 88.5006 284.475 89.8141 286.811 92.1493C289.148 94.4844 290.462 97.6505 290.465 100.953V281.739C290.462 285.041 289.147 288.207 286.811 290.542C284.475 292.877 281.307 294.191 278.003 294.195Z" fill="white"/>
<path d="M204.037 101.83C203.33 101.83 202.639 101.62 202.051 101.227C201.463 100.835 201.005 100.277 200.734 99.6239C200.464 98.971 200.393 98.2526 200.531 97.5594C200.669 96.8663 201.009 96.2296 201.509 95.7299C202.009 95.2302 202.646 94.8899 203.34 94.752C204.033 94.6141 204.752 94.6849 205.405 94.9553C206.058 95.2257 206.617 95.6837 207.01 96.2713C207.402 96.8589 207.612 97.5497 207.612 98.2564C207.611 99.2037 207.234 100.112 206.564 100.782C205.894 101.452 204.985 101.828 204.037 101.83ZM204.037 95.5093C203.493 95.5093 202.962 95.6704 202.51 95.9723C202.058 96.2741 201.706 96.7032 201.498 97.2052C201.29 97.7072 201.235 98.2596 201.341 98.7925C201.447 99.3254 201.709 99.8149 202.094 100.199C202.478 100.583 202.968 100.845 203.501 100.951C204.034 101.057 204.587 101.002 205.089 100.795C205.591 100.587 206.021 100.234 206.323 99.7827C206.625 99.3309 206.786 98.7997 206.786 98.2564C206.785 97.528 206.495 96.8298 205.98 96.3148C205.464 95.7998 204.766 95.5101 204.037 95.5093Z" fill="white"/>
<path d="M204.037 290.155C203.135 290.155 202.253 289.888 201.503 289.387C200.753 288.886 200.168 288.174 199.823 287.341C199.478 286.508 199.387 285.591 199.563 284.707C199.739 283.822 200.174 283.01 200.812 282.372C201.45 281.735 202.262 281.3 203.147 281.124C204.032 280.949 204.949 281.039 205.783 281.384C206.616 281.729 207.329 282.313 207.83 283.063C208.331 283.813 208.599 284.694 208.599 285.596C208.597 286.805 208.116 287.964 207.261 288.818C206.406 289.673 205.247 290.154 204.037 290.155ZM204.037 282.091C203.344 282.091 202.665 282.296 202.089 282.682C201.512 283.067 201.062 283.614 200.797 284.255C200.531 284.895 200.462 285.6 200.597 286.28C200.733 286.96 201.067 287.585 201.557 288.075C202.048 288.565 202.673 288.899 203.353 289.034C204.033 289.169 204.739 289.1 205.379 288.835C206.02 288.569 206.568 288.12 206.953 287.544C207.339 286.967 207.544 286.289 207.544 285.596C207.543 284.667 207.174 283.776 206.516 283.119C205.859 282.461 204.967 282.092 204.037 282.091Z" fill="white"/>
<path d="M128.586 294.5H79.6167C75.9302 294.496 72.3959 293.03 69.7891 290.425C67.1823 287.819 65.716 284.287 65.7119 280.602V153.865C65.7161 150.181 67.1824 146.648 69.7891 144.043C72.3959 141.437 75.9302 139.972 79.6166 139.968H128.586C132.273 139.972 135.807 141.437 138.414 144.043C141.02 146.648 142.487 150.181 142.491 153.865V176.545C142.741 176.65 142.954 176.825 143.104 177.05C143.254 177.275 143.334 177.54 143.335 177.81L143.335 192.568C143.334 192.838 143.254 193.103 143.104 193.328C142.954 193.553 142.74 193.728 142.491 193.833V280.603C142.487 284.287 141.02 287.82 138.414 290.425C135.807 293.03 132.272 294.496 128.586 294.5ZM79.6166 141.022C76.2097 141.025 72.9434 142.38 70.5344 144.788C68.1253 147.195 66.7702 150.46 66.7663 153.865V280.602C66.7701 284.008 68.1252 287.272 70.5343 289.68C72.9434 292.088 76.2097 293.442 79.6167 293.446H128.586C131.993 293.442 135.259 292.088 137.668 289.68C140.077 287.272 141.432 284.008 141.436 280.603V192.884H141.964C142.048 192.884 142.128 192.851 142.187 192.791C142.247 192.732 142.28 192.652 142.28 192.568L142.28 177.81C142.28 177.726 142.247 177.646 142.187 177.587C142.128 177.527 142.048 177.494 141.964 177.494H141.436V153.865C141.433 150.46 140.077 147.195 137.668 144.788C135.259 142.38 131.993 141.025 128.586 141.022H79.6166Z" fill="white"/>
<path d="M129.126 143.973H122.734C123.028 144.693 123.14 145.475 123.06 146.249C122.981 147.023 122.712 147.765 122.278 148.411C121.844 149.056 121.258 149.586 120.571 149.951C119.884 150.317 119.118 150.509 118.339 150.509H90.2853C89.507 150.509 88.7406 150.317 88.0537 149.951C87.3668 149.586 86.7805 149.056 86.3463 148.411C85.9122 147.765 85.6436 147.023 85.5642 146.249C85.4847 145.475 85.5969 144.693 85.8909 143.973H79.9206C77.2711 143.973 74.73 145.025 72.8565 146.898C70.983 148.77 69.9304 151.31 69.9304 153.958V280.509C69.9304 283.158 70.983 285.697 72.8565 287.57C74.73 289.443 77.2711 290.495 79.9206 290.495H129.126C131.775 290.495 134.316 289.443 136.19 287.57C138.064 285.697 139.116 283.158 139.116 280.509V153.958C139.116 151.31 138.064 148.77 136.19 146.898C134.316 145.025 131.775 143.973 129.126 143.973Z" fill="#07BEB8"/>
<path d="M656.872 294.294H1.12765C1.04504 294.294 0.963186 294.278 0.886782 294.247C0.810378 294.215 0.74092 294.169 0.682405 294.111C0.62389 294.053 0.577465 293.983 0.545786 293.907C0.514107 293.831 0.497803 293.749 0.497803 293.666C0.497803 293.584 0.514107 293.502 0.545786 293.426C0.577465 293.35 0.62389 293.28 0.682405 293.222C0.74092 293.164 0.810378 293.118 0.886782 293.086C0.963186 293.055 1.04504 293.039 1.12765 293.039H656.872C656.955 293.039 657.037 293.055 657.113 293.086C657.189 293.118 657.259 293.164 657.317 293.222C657.376 293.28 657.422 293.35 657.454 293.426C657.486 293.502 657.502 293.584 657.502 293.666C657.502 293.749 657.486 293.831 657.454 293.907C657.422 293.983 657.376 294.053 657.317 294.111C657.259 294.169 657.189 294.215 657.113 294.247C657.037 294.278 656.955 294.294 656.872 294.294Z" fill="white"/>
<path d="M454.63 293.998H308.595C307.141 294 305.7 293.714 304.356 293.159C303.011 292.603 301.79 291.788 300.761 290.761C299.732 289.733 298.916 288.513 298.359 287.17C297.802 285.826 297.515 284.387 297.515 282.933C297.515 281.479 297.802 280.039 298.359 278.696C298.916 277.353 299.732 276.133 300.761 275.105C301.79 274.078 303.011 273.263 304.356 272.707C305.7 272.152 307.141 271.866 308.595 271.867H454.63C457.565 271.87 460.378 273.037 462.453 275.112C464.527 277.187 465.692 280 465.692 282.933C465.692 285.866 464.527 288.679 462.453 290.754C460.378 292.829 457.565 293.996 454.63 293.998ZM308.595 272.921C305.939 272.921 303.391 273.976 301.512 275.854C299.634 277.731 298.578 280.278 298.578 282.933C298.578 285.588 299.634 288.135 301.512 290.012C303.391 291.89 305.939 292.945 308.595 292.945H454.63C457.287 292.945 459.834 291.89 461.713 290.012C463.591 288.135 464.647 285.588 464.647 282.933C464.647 280.278 463.591 277.731 461.713 275.854C459.834 273.976 457.287 272.921 454.63 272.921H308.595Z" fill="white"/>
<path d="M560.666 209.747L564.756 218.294L599.685 206.594L593.648 193.98L560.666 209.747Z" fill="#FFB8B8"/>
<path d="M564.703 238.572L551.849 211.711L562.232 206.748L570.5 224.024C571.716 226.566 571.873 229.487 570.934 232.144C569.996 234.801 568.04 236.977 565.497 238.193L564.703 238.572Z" fill="black"/>
<path d="M552.432 286.071L561.905 285.751L562.304 248.894L551.199 249.549L552.432 286.071Z" fill="#FFB8B8"/>
<path d="M580.287 294.432H550.496V282.928H569.657C572.476 282.928 575.18 284.048 577.173 286.04C579.167 288.033 580.287 290.735 580.287 293.553V294.432Z" fill="black"/>
<path d="M553.211 280.534C552.417 280.534 551.645 280.268 551.02 279.778C550.395 279.288 549.952 278.603 549.762 277.832C544.572 256.992 525.262 151.987 542.338 131.364L542.487 131.184L542.713 131.127C543.912 130.824 566.508 123.832 579.767 134.746L579.923 134.874L587.302 156.223L607.194 185.737C608.283 187.353 609.037 189.172 609.41 191.084C609.784 192.997 609.769 194.965 609.367 196.872C608.966 198.779 608.185 200.586 607.072 202.186C605.958 203.786 604.535 205.147 602.886 206.187L576.765 222.662C576.134 223.043 575.4 223.219 574.665 223.168C573.93 223.116 573.228 222.838 572.657 222.373C572.177 221.976 571.808 221.462 571.586 220.88L566.096 207.163C565.768 206.332 565.763 205.408 566.081 204.573C566.399 203.737 567.017 203.05 567.814 202.646L580.053 196.53C580.388 196.346 580.678 196.09 580.904 195.781C581.13 195.473 581.285 195.118 581.359 194.743C581.393 194.404 581.343 194.062 581.215 193.746C581.087 193.43 580.885 193.149 580.625 192.928L566.418 180.688C566.102 180.416 565.714 180.242 565.3 180.187C564.887 180.132 564.466 180.199 564.091 180.38C563.715 180.561 563.4 180.847 563.185 181.205C562.97 181.562 562.863 181.974 562.879 182.39L566.401 275.313C566.433 276.185 566.145 277.039 565.59 277.714C565.035 278.388 564.253 278.836 563.39 278.972L553.782 280.489C553.593 280.519 553.402 280.534 553.211 280.534Z" fill="black"/>
<path d="M577.718 138.534C577.637 138.534 577.557 138.531 577.476 138.525L542.047 135.902C541.556 135.866 541.079 135.718 540.654 135.468C540.229 135.218 539.867 134.874 539.597 134.462C539.326 134.05 539.155 133.581 539.095 133.092C539.035 132.602 539.089 132.106 539.253 131.641C541.432 125.361 541.699 118.576 540.021 112.145C537.713 103.051 537.659 86.1432 537.832 76.8741C537.871 75.3027 538.501 73.8039 539.597 72.6766C540.693 71.5493 542.174 70.8764 543.745 70.7922L543.745 70.7796L544.459 70.7883C550.23 70.8692 560.822 71.2807 569.489 73.083C572.409 73.6873 575.037 75.2674 576.94 77.5634C578.842 79.8593 579.906 82.7342 579.956 85.7149C580.152 94.3205 580.181 105.969 579.204 112.59C578.38 118.176 579.902 128.903 580.883 134.801C580.959 135.26 580.934 135.73 580.81 136.179C580.686 136.628 580.466 137.044 580.165 137.399C579.864 137.754 579.489 138.04 579.066 138.236C578.644 138.432 578.184 138.533 577.718 138.534H577.718Z" fill="white"/>
<path d="M590.366 172.289C589.422 171.837 588.588 171.184 587.925 170.376C587.261 169.567 586.782 168.623 586.523 167.61C586.263 166.597 586.229 165.539 586.423 164.511C586.617 163.483 587.034 162.51 587.645 161.661L571.282 91.1368H583.652L598.094 160.271C599.453 161.391 600.354 162.971 600.627 164.71C600.899 166.45 600.523 168.229 599.57 169.711C598.618 171.192 597.155 172.273 595.458 172.748C593.762 173.223 591.95 173.06 590.366 172.289H590.366Z" fill="#FFB8B8"/>
<path d="M512.87 98.7766L532.46 80.2549L539.84 90.5819L521.39 106.81L545.587 126.015C545.761 126.003 545.936 125.989 546.114 125.989C547.603 125.987 549.06 126.415 550.313 127.22C551.565 128.025 552.559 129.173 553.175 130.528C553.792 131.883 554.004 133.386 553.788 134.859C553.572 136.331 552.936 137.71 551.956 138.831C550.976 139.951 549.694 140.766 548.263 141.177C546.832 141.589 545.313 141.579 543.887 141.15C542.461 140.721 541.19 139.891 540.224 138.758C539.258 137.626 538.639 136.239 538.441 134.764L538.364 134.84L513.18 113.026C512.165 112.146 511.345 111.064 510.774 109.849C510.203 108.634 509.893 107.312 509.863 105.97C509.834 104.628 510.087 103.294 510.604 102.055C511.122 100.816 511.894 99.6993 512.87 98.7766Z" fill="#FFB8B8"/>
<path d="M572.585 95.6558C571.98 95.6577 571.386 95.4873 570.873 95.1646C570.361 94.8419 569.951 94.3801 569.691 93.8333C568.131 90.5395 567.056 87.0369 566.501 83.4348C565.652 77.5512 569.745 74.0511 573.907 73.2886C577.957 72.5467 582.888 74.326 584.149 79.9849C584.255 80.4639 584.337 80.948 584.394 81.4352C584.898 85.725 585.373 89.0613 585.805 91.3521C585.89 91.8025 585.877 92.2659 585.768 92.711C585.658 93.156 585.455 93.5725 585.171 93.9323C584.887 94.2921 584.529 94.5868 584.121 94.7967C583.713 95.0066 583.266 95.1268 582.808 95.1491L572.749 95.6516C572.694 95.6544 572.64 95.6558 572.585 95.6558Z" fill="white"/>
<path d="M558.558 64.7176C570.389 64.7176 579.98 55.1319 579.98 43.3074C579.98 31.4828 570.389 21.8971 558.558 21.8971C546.728 21.8971 537.137 31.4828 537.137 43.3074C537.137 55.1319 546.728 64.7176 558.558 64.7176Z" fill="black"/>
<path d="M558.688 66.3936C568.373 66.3936 576.225 58.5458 576.225 48.865C576.225 39.1842 568.373 31.3364 558.688 31.3364C549.002 31.3364 541.15 39.1842 541.15 48.865C541.15 58.5458 549.002 66.3936 558.688 66.3936Z" fill="#FFB8B8"/>
<path d="M527.56 87.1252C527.113 86.7176 526.79 86.1911 526.63 85.6072C526.471 85.0233 526.481 84.406 526.659 83.8275C527.735 80.3452 529.31 77.0374 531.336 74.0071C534.687 69.0958 540.071 69.2795 543.655 71.5284C547.142 73.7157 549.575 78.358 546.679 83.3812C546.433 83.8058 546.166 84.2178 545.879 84.6155C543.351 88.1188 541.446 90.8992 540.216 92.88C539.974 93.2693 539.651 93.6022 539.27 93.8564C538.888 94.1106 538.456 94.2801 538.004 94.3535C537.551 94.4269 537.088 94.4025 536.646 94.282C536.203 94.1615 535.792 93.9476 535.439 93.6547L527.684 87.233C527.642 87.198 527.6 87.1621 527.56 87.1252Z" fill="white"/>
<path d="M554.397 24.1862C550.087 21.6155 549.154 15.214 551.722 10.9033C554.29 6.59272 559.48 4.34413 564.497 4.19593C571.664 3.98423 578.585 7.55084 583.602 12.6708C588.619 17.7908 591.929 24.3446 594.451 31.0528C596.974 37.7609 598.785 44.7182 601.27 51.44C602.546 54.8893 604.117 58.431 607.035 60.6709C609.953 62.9108 614.591 63.3148 617.086 60.6116C617.076 64.9373 613.758 68.8695 609.643 70.2087C605.528 71.548 600.873 70.5367 597.265 68.1471C591.006 64.0018 587.985 56.4348 586.257 49.1319C584.53 41.8291 583.679 34.1766 580.207 27.5234C578.768 24.7668 576.796 22.1482 574.022 20.7417C571.248 19.3351 567.552 19.4275 565.32 21.5936C564.287 22.5969 563.617 23.9649 562.444 24.8013C561.702 25.2653 560.864 25.5536 559.993 25.6442C559.122 25.7348 558.242 25.6253 557.42 25.3241C555.783 24.7088 554.251 23.8446 552.877 22.7621" fill="black"/>
<path d="M540.372 37.0214C542.062 39.2927 544.195 41.1986 546.642 42.6241C549.089 44.0496 551.799 44.9652 554.609 45.3158C557.419 45.6664 560.271 45.4447 562.994 44.6641C565.716 43.8835 568.252 42.5601 570.449 40.7736C572.152 39.3889 573.733 37.4806 573.626 35.2891C573.517 33.0444 571.681 31.2813 569.807 30.0398C564.876 26.8007 558.946 25.4388 553.095 26.202C549.757 26.6503 546.409 27.8664 544.045 30.2643C541.681 32.6623 540.503 36.3917 541.723 39.5298" fill="black"/>
</g>
<defs>
<clipPath id="clip0">
<rect width="657" height="294" fill="white" transform="translate(0.5 0.500061)"/>
</clipPath>
</defs>
</svg>
