<?xml version="1.0" encoding="UTF-8"?>
<svg fill="rgba(255,255,255,.8)" xmlns="http://www.w3.org/2000/svg" width="512" height="512" viewBox="0 0 512 512"><g><path d="M434.73,72.48l-176-64a8,8,0,0,0-5.46,0l-176,64A8,8,0,0,0,72,80V286.52a168.494,168.494,0,0,0,69.19,135.87l110.1,80.08a8.015,8.015,0,0,0,9.42,0l110.1-80.08A168.494,168.494,0,0,0,440,286.52V80A8,8,0,0,0,434.73,72.48ZM424,286.52a152.44,152.44,0,0,1-62.6,122.93L256,486.11,150.6,409.45A152.44,152.44,0,0,1,88,286.52V85.6L256,24.51,424,85.6Z"/><path d="M402.73,94.9l-144-52.37a8,8,0,0,0-5.46,0l-144,52.37a7.976,7.976,0,0,0-5.27,7.51V286.52a136.4,136.4,0,0,0,56.01,109.99l91.28,66.39a8.015,8.015,0,0,0,9.42,0l91.28-66.39A136.4,136.4,0,0,0,408,286.52V102.41A7.976,7.976,0,0,0,402.73,94.9ZM392,286.52a120.334,120.334,0,0,1-49.42,97.05L256,446.54l-86.58-62.97A120.334,120.334,0,0,1,120,286.52V108.02L256,58.56l136,49.46Z"/><path d="M216,232a40.161,40.161,0,0,0,16,32v32a24,24,0,0,0,48,0V264a40,40,0,1,0-64-32Zm64,0A24.1,24.1,0,0,1,267.994,252.8,8,8,0,0,0,264,259.72V296a8,8,0,0,1-16,0V259.72a8,8,0,0,0-3.994-6.925A24,24,0,1,1,280,232Z"/></g></svg>
